<?xml version="1.0" encoding="UTF-8"?>
<svg xmlns="http://www.w3.org/2000/svg" viewBox="0 0 731 731" fill="currentColor" class="">
<path d="M0 0 C34.65 0 69.3 0 105 0 C104.67 2.64 104.34 5.28 104 8 C103.19063841 19.18481896 103.53557017 29.55491888 108 40 C108.38929688 40.9178125 108.77859375 41.835625 109.1796875 42.78125 C117.42132769 59.7522014 134.60090771 72.97225776 150 83 C150.9590625 83.63292969 151.918125 84.26585937 152.90625 84.91796875 C171.93859841 97.06361214 192.77278566 106.52664947 213.28515625 115.8671875 C267.92237049 140.76969708 325.23566655 173.80618008 347.6875 232.93359375 C352.48402269 247.11851976 355.12583131 261.60455503 355.203125 276.55859375 C355.20882507 277.42895767 355.21452515 278.29932159 355.22039795 279.19606018 C355.22976871 281.01700653 355.23634999 282.83796923 355.24023438 284.65893555 C355.25005994 287.45455379 355.28120309 290.24947184 355.3125 293.04492188 C355.31902006 294.82030817 355.32427443 296.59569966 355.328125 298.37109375 C355.3404718 299.20748886 355.3528186 300.04388397 355.36553955 300.90562439 C355.35644531 303.24389648 355.35644531 303.24389648 355 307 C351.86458244 309.09027837 351.17801689 309.24894205 347.61506653 309.24050903 C346.27103004 309.24463303 346.27103004 309.24463303 344.89984131 309.24884033 C343.91944885 309.24164978 342.9390564 309.23445923 341.92895508 309.22705078 C340.89463852 309.22734283 339.86032196 309.22763489 338.79466248 309.22793579 C335.36953394 309.22654038 331.94462187 309.21096908 328.51953125 309.1953125 C326.14727396 309.19158313 323.77501512 309.1887358 321.40275574 309.18673706 C315.15393839 309.17909468 308.90521377 309.15944092 302.65643311 309.1373291 C296.28203587 309.11688374 289.90762368 309.10773814 283.53320312 309.09765625 C271.02209582 309.07619566 258.51105284 309.04243591 246 309 C244.86509774 305.04705479 245.18732611 301.54576836 245.5625 297.5 C246.81139653 280.74428783 241.62522522 266.41875031 230.93359375 253.50390625 C209.75120446 229.30072405 179.04719419 215.28206547 149.75 203.375 C126.99577975 194.07551451 104.67117681 183.33809116 84 170 C82.88496094 169.29746094 81.76992188 168.59492188 80.62109375 167.87109375 C68.27303831 159.90200973 57.07002368 150.55475581 46.47119141 140.40380859 C45.12222553 139.11662741 43.75530492 137.84833146 42.38671875 136.58203125 C16.64287466 112.06995003 0.00148317 75.2320662 -1.25488281 39.68676758 C-1.34416478 35.2134304 -1.33337938 30.74304661 -1.28125 26.26928711 C-1.24941781 23.51207237 -1.24019277 20.75542927 -1.234375 17.99804688 C-1.22522701 16.22915965 -1.2148584 14.46027821 -1.203125 12.69140625 C-1.19887512 11.87483047 -1.19462524 11.0582547 -1.19024658 10.2169342 C-1.14433132 6.58854561 -0.8857396 3.5429584 0 0 Z " transform="translate(199,191)"/>
<path d="M0 0 C1.794375 0.45439453 1.794375 0.45439453 3.625 0.91796875 C10.02023532 2.33843931 16.48418845 2.75606363 23 3.3125 C77.02790615 8.32998675 127.23113428 30.04041054 163.26171875 71.609375 C165.55118876 74.37431958 167.78301059 77.17665451 170 80 C170.83451688 81.0430636 171.66915546 82.08602983 172.50390625 83.12890625 C189.79508978 104.92882125 211 139.08374643 211 168 C196.9014101 168.4926226 182.80416925 168.86043629 168.6987133 169.08805561 C162.14716708 169.19735343 155.60142623 169.34534247 149.05322266 169.58422852 C142.72434475 169.81364914 136.40101871 169.93819585 130.06830215 169.9924221 C127.66190238 170.03101796 125.25578385 170.1064101 122.85177231 170.22033119 C104.51637882 171.05407297 104.51637882 171.05407297 98.65402985 165.96245956 C94.39815302 160.94296651 91.34960282 155.40969571 88.39664078 149.5571804 C76.75660777 128.24485386 53.22645172 114.9158313 30.75 108 C23.19321812 106.11080453 15.79025288 105.70897639 8.03125 105.42578125 C6.9680957 105.3834436 5.90494141 105.34110596 4.80957031 105.29748535 C2.20650718 105.1943865 -0.39664262 105.09532697 -3 105 C-3.06945558 91.90035242 -3.12278876 78.80074852 -3.15543652 65.70095444 C-3.17110437 59.61844131 -3.19236331 53.53605399 -3.22631836 47.45361328 C-3.25887152 41.58569346 -3.27684457 35.7178948 -3.28463173 29.84989166 C-3.29018248 27.60914451 -3.3010215 25.36840412 -3.31719017 23.12770844 C-3.33891039 19.99352088 -3.34196915 16.85983643 -3.34057617 13.72558594 C-3.351362 12.79554245 -3.36214783 11.86549896 -3.3732605 10.90727234 C-3.34279011 4.58762447 -3.34279011 4.58762447 -1.47871399 1.39215088 C-0.99073837 0.93274109 -0.50276276 0.4733313 0 0 Z " transform="translate(362,17)"/>
<path d="M0 0 C1.78061481 2.40607446 3.22939181 4.66106567 4.6875 7.25 C5.56529197 8.72305543 6.44819974 10.19307319 7.3359375 11.66015625 C7.7803418 12.39508301 8.22474609 13.13000977 8.68261719 13.88720703 C22.81927542 36.55930494 43.98530597 53.54635349 69.8125 60.8125 C75.13701992 61.96919422 80.47352506 62.53287386 85.88671875 63.07421875 C86.76501343 63.16425171 87.64330811 63.25428467 88.54821777 63.3470459 C90.6985647 63.56712561 92.84924964 63.78389845 95 64 C95.15356257 77.02104724 95.30174436 90.04214334 95.4429636 103.06333065 C95.50870102 109.10890505 95.57632607 115.15444629 95.64819336 121.19995117 C95.71741802 127.028899 95.781778 132.85788171 95.84269524 138.68692207 C95.86686111 140.91619395 95.89281113 143.14544718 95.92053413 145.37467766 C95.95892078 148.48535112 95.99109125 151.59602908 96.02172852 154.70678711 C96.04114754 156.10400497 96.04114754 156.10400497 96.06095886 157.52944946 C96.07897434 159.68632012 96.04530854 161.84353003 96 164 C93.51024984 166.48975016 86.16876874 165.31128341 82.67871094 165.3190918 C64.18063379 165.09275757 45.54198178 161.8658231 28 156 C27.2275293 155.74347656 26.45505859 155.48695313 25.65917969 155.22265625 C14.28755698 151.3815748 3.55738304 146.6980718 -7 141 C-7.61214355 140.67386719 -8.22428711 140.34773437 -8.85498047 140.01171875 C-17.46317687 135.39616244 -25.38345986 130.11554701 -33 124 C-33.80727539 123.36046387 -34.61455078 122.72092773 -35.44628906 122.06201172 C-73.61327833 91.42744943 -99.84162681 49.91040435 -110 2 C-110 1.34 -110 0.68 -110 0 C-96.39611642 -0.1538239 -82.79218423 -0.30200521 -69.1881609 -0.4429636 C-62.87141871 -0.5085924 -56.5547099 -0.57617186 -50.23803711 -0.64819336 C-44.14323258 -0.71761365 -38.04839369 -0.78193076 -31.95349693 -0.84269524 C-29.62705209 -0.86678897 -27.30062561 -0.89272806 -24.97422218 -0.92053413 C-21.71827693 -0.95913666 -18.46232844 -0.99120474 -15.20629883 -1.02172852 C-14.24244766 -1.03467453 -13.2785965 -1.04762054 -12.28553772 -1.06095886 C-11.39517822 -1.06799835 -10.50481873 -1.07503784 -9.58747864 -1.08229065 C-8.8177815 -1.09058679 -8.04808435 -1.09888292 -7.25506306 -1.10743046 C-4.69857591 -0.98564026 -2.46093861 -0.72115084 0 0 Z " transform="translate(272,493)"/>
</svg>
